<mxfile host="app.diagrams.net" agent="Mozilla/5.0 (Windows NT 10.0; Win64; x64) AppleWebKit/537.36 (KHTML, like Gecko) Chrome/131.0.0.0 Safari/537.36" version="26.0.2">
  <diagram name="페이지-1" id="J5ld-o9YsykwaJW0iRWq">
    <mxGraphModel dx="466" dy="698" grid="1" gridSize="10" guides="1" tooltips="1" connect="1" arrows="1" fold="1" page="1" pageScale="1" pageWidth="1169" pageHeight="1654" math="0" shadow="0">
      <root>
        <mxCell id="0" />
        <mxCell id="1" parent="0" />
        <mxCell id="RNx5oMXkwQKdDHzfXm1A-35" value="" style="rounded=0;whiteSpace=wrap;html=1;strokeColor=none;" vertex="1" parent="1">
          <mxGeometry x="20" y="210" width="200" height="370" as="geometry" />
        </mxCell>
        <mxCell id="qJHvWddQvVpyHVcaTfQw-129" value="" style="rounded=0;whiteSpace=wrap;html=1;strokeColor=none;" parent="1" vertex="1">
          <mxGeometry x="40" y="40" width="610" height="140" as="geometry" />
        </mxCell>
        <mxCell id="bP5qZYam4a8HKO0-40Mf-24" value="" style="rounded=1;whiteSpace=wrap;html=1;" parent="1" vertex="1">
          <mxGeometry x="740" y="680" width="520" height="40" as="geometry" />
        </mxCell>
        <mxCell id="bP5qZYam4a8HKO0-40Mf-1" value="" style="ellipse;whiteSpace=wrap;html=1;" parent="1" vertex="1">
          <mxGeometry x="840" y="950" width="40" height="20" as="geometry" />
        </mxCell>
        <mxCell id="bP5qZYam4a8HKO0-40Mf-2" value="" style="ellipse;whiteSpace=wrap;html=1;" parent="1" vertex="1">
          <mxGeometry x="840" y="930" width="40" height="20" as="geometry" />
        </mxCell>
        <mxCell id="bP5qZYam4a8HKO0-40Mf-3" value="" style="ellipse;whiteSpace=wrap;html=1;" parent="1" vertex="1">
          <mxGeometry x="840" y="910" width="40" height="20" as="geometry" />
        </mxCell>
        <mxCell id="bP5qZYam4a8HKO0-40Mf-4" value="" style="ellipse;whiteSpace=wrap;html=1;" parent="1" vertex="1">
          <mxGeometry x="890" y="950" width="40" height="20" as="geometry" />
        </mxCell>
        <mxCell id="bP5qZYam4a8HKO0-40Mf-5" value="" style="ellipse;whiteSpace=wrap;html=1;" parent="1" vertex="1">
          <mxGeometry x="890" y="930" width="40" height="20" as="geometry" />
        </mxCell>
        <mxCell id="bP5qZYam4a8HKO0-40Mf-6" value="" style="ellipse;whiteSpace=wrap;html=1;" parent="1" vertex="1">
          <mxGeometry x="890" y="910" width="40" height="20" as="geometry" />
        </mxCell>
        <mxCell id="bP5qZYam4a8HKO0-40Mf-7" value="" style="ellipse;whiteSpace=wrap;html=1;" parent="1" vertex="1">
          <mxGeometry x="940" y="950" width="40" height="20" as="geometry" />
        </mxCell>
        <mxCell id="bP5qZYam4a8HKO0-40Mf-8" value="" style="ellipse;whiteSpace=wrap;html=1;" parent="1" vertex="1">
          <mxGeometry x="990" y="950" width="40" height="20" as="geometry" />
        </mxCell>
        <mxCell id="bP5qZYam4a8HKO0-40Mf-9" value="" style="ellipse;whiteSpace=wrap;html=1;" parent="1" vertex="1">
          <mxGeometry x="990" y="930" width="40" height="20" as="geometry" />
        </mxCell>
        <mxCell id="bP5qZYam4a8HKO0-40Mf-10" value="" style="ellipse;whiteSpace=wrap;html=1;" parent="1" vertex="1">
          <mxGeometry x="990" y="910" width="40" height="20" as="geometry" />
        </mxCell>
        <mxCell id="bP5qZYam4a8HKO0-40Mf-11" value="" style="ellipse;whiteSpace=wrap;html=1;" parent="1" vertex="1">
          <mxGeometry x="990" y="890" width="40" height="20" as="geometry" />
        </mxCell>
        <mxCell id="bP5qZYam4a8HKO0-40Mf-12" value="" style="ellipse;whiteSpace=wrap;html=1;" parent="1" vertex="1">
          <mxGeometry x="990" y="870" width="40" height="20" as="geometry" />
        </mxCell>
        <mxCell id="bP5qZYam4a8HKO0-40Mf-13" value="" style="ellipse;whiteSpace=wrap;html=1;" parent="1" vertex="1">
          <mxGeometry x="990" y="850" width="40" height="20" as="geometry" />
        </mxCell>
        <mxCell id="bP5qZYam4a8HKO0-40Mf-14" value="" style="ellipse;whiteSpace=wrap;html=1;" parent="1" vertex="1">
          <mxGeometry x="990" y="830" width="40" height="20" as="geometry" />
        </mxCell>
        <mxCell id="bP5qZYam4a8HKO0-40Mf-15" value="" style="ellipse;whiteSpace=wrap;html=1;" parent="1" vertex="1">
          <mxGeometry x="990" y="810" width="40" height="20" as="geometry" />
        </mxCell>
        <mxCell id="bP5qZYam4a8HKO0-40Mf-16" value="" style="ellipse;whiteSpace=wrap;html=1;" parent="1" vertex="1">
          <mxGeometry x="1040" y="950" width="40" height="20" as="geometry" />
        </mxCell>
        <mxCell id="bP5qZYam4a8HKO0-40Mf-17" value="" style="ellipse;whiteSpace=wrap;html=1;" parent="1" vertex="1">
          <mxGeometry x="1040" y="930" width="40" height="20" as="geometry" />
        </mxCell>
        <mxCell id="bP5qZYam4a8HKO0-40Mf-18" value="" style="ellipse;whiteSpace=wrap;html=1;" parent="1" vertex="1">
          <mxGeometry x="1040" y="910" width="40" height="20" as="geometry" />
        </mxCell>
        <mxCell id="bP5qZYam4a8HKO0-40Mf-19" value="" style="ellipse;whiteSpace=wrap;html=1;" parent="1" vertex="1">
          <mxGeometry x="1090" y="950" width="40" height="20" as="geometry" />
        </mxCell>
        <mxCell id="bP5qZYam4a8HKO0-40Mf-20" value="" style="ellipse;whiteSpace=wrap;html=1;" parent="1" vertex="1">
          <mxGeometry x="1090" y="930" width="40" height="20" as="geometry" />
        </mxCell>
        <mxCell id="bP5qZYam4a8HKO0-40Mf-21" value="" style="ellipse;whiteSpace=wrap;html=1;" parent="1" vertex="1">
          <mxGeometry x="1090" y="910" width="40" height="20" as="geometry" />
        </mxCell>
        <mxCell id="bP5qZYam4a8HKO0-40Mf-22" value="" style="ellipse;whiteSpace=wrap;html=1;" parent="1" vertex="1">
          <mxGeometry x="1090" y="890" width="40" height="20" as="geometry" />
        </mxCell>
        <mxCell id="bP5qZYam4a8HKO0-40Mf-23" value="0" style="text;html=1;align=center;verticalAlign=middle;whiteSpace=wrap;rounded=0;" parent="1" vertex="1">
          <mxGeometry x="740" y="685" width="40" height="30" as="geometry" />
        </mxCell>
        <mxCell id="bP5qZYam4a8HKO0-40Mf-25" value="0" style="text;html=1;align=center;verticalAlign=middle;whiteSpace=wrap;rounded=0;" parent="1" vertex="1">
          <mxGeometry x="780" y="685" width="40" height="30" as="geometry" />
        </mxCell>
        <mxCell id="bP5qZYam4a8HKO0-40Mf-26" value="0" style="text;html=1;align=center;verticalAlign=middle;whiteSpace=wrap;rounded=0;" parent="1" vertex="1">
          <mxGeometry x="820" y="685" width="40" height="30" as="geometry" />
        </mxCell>
        <mxCell id="bP5qZYam4a8HKO0-40Mf-27" value="0" style="text;html=1;align=center;verticalAlign=middle;whiteSpace=wrap;rounded=0;" parent="1" vertex="1">
          <mxGeometry x="940" y="685" width="40" height="30" as="geometry" />
        </mxCell>
        <mxCell id="bP5qZYam4a8HKO0-40Mf-28" value="0" style="text;html=1;align=center;verticalAlign=middle;whiteSpace=wrap;rounded=0;" parent="1" vertex="1">
          <mxGeometry x="900" y="685" width="40" height="30" as="geometry" />
        </mxCell>
        <mxCell id="bP5qZYam4a8HKO0-40Mf-29" value="0" style="text;html=1;align=center;verticalAlign=middle;whiteSpace=wrap;rounded=0;" parent="1" vertex="1">
          <mxGeometry x="860" y="685" width="40" height="30" as="geometry" />
        </mxCell>
        <mxCell id="bP5qZYam4a8HKO0-40Mf-30" value="0" style="text;html=1;align=center;verticalAlign=middle;whiteSpace=wrap;rounded=0;" parent="1" vertex="1">
          <mxGeometry x="980" y="685" width="40" height="30" as="geometry" />
        </mxCell>
        <mxCell id="bP5qZYam4a8HKO0-40Mf-31" value="0" style="text;html=1;align=center;verticalAlign=middle;whiteSpace=wrap;rounded=0;" parent="1" vertex="1">
          <mxGeometry x="1020" y="685" width="40" height="30" as="geometry" />
        </mxCell>
        <mxCell id="bP5qZYam4a8HKO0-40Mf-32" value="0" style="text;html=1;align=center;verticalAlign=middle;whiteSpace=wrap;rounded=0;" parent="1" vertex="1">
          <mxGeometry x="1060" y="685" width="40" height="30" as="geometry" />
        </mxCell>
        <mxCell id="bP5qZYam4a8HKO0-40Mf-33" value="0" style="text;html=1;align=center;verticalAlign=middle;whiteSpace=wrap;rounded=0;" parent="1" vertex="1">
          <mxGeometry x="1180" y="685" width="40" height="30" as="geometry" />
        </mxCell>
        <mxCell id="bP5qZYam4a8HKO0-40Mf-34" value="0" style="text;html=1;align=center;verticalAlign=middle;whiteSpace=wrap;rounded=0;" parent="1" vertex="1">
          <mxGeometry x="1140" y="685" width="40" height="30" as="geometry" />
        </mxCell>
        <mxCell id="bP5qZYam4a8HKO0-40Mf-35" value="0" style="text;html=1;align=center;verticalAlign=middle;whiteSpace=wrap;rounded=0;" parent="1" vertex="1">
          <mxGeometry x="1100" y="685" width="40" height="30" as="geometry" />
        </mxCell>
        <mxCell id="bP5qZYam4a8HKO0-40Mf-36" value="..." style="text;html=1;align=center;verticalAlign=middle;whiteSpace=wrap;rounded=0;" parent="1" vertex="1">
          <mxGeometry x="1220" y="685" width="40" height="30" as="geometry" />
        </mxCell>
        <mxCell id="bP5qZYam4a8HKO0-40Mf-37" value="G" style="text;html=1;align=center;verticalAlign=middle;whiteSpace=wrap;rounded=0;" parent="1" vertex="1">
          <mxGeometry x="700" y="650" width="40" height="30" as="geometry" />
        </mxCell>
        <mxCell id="bP5qZYam4a8HKO0-40Mf-38" value="0" style="text;html=1;align=center;verticalAlign=middle;whiteSpace=wrap;rounded=0;" parent="1" vertex="1">
          <mxGeometry x="740" y="650" width="40" height="30" as="geometry" />
        </mxCell>
        <mxCell id="bP5qZYam4a8HKO0-40Mf-39" value="1" style="text;html=1;align=center;verticalAlign=middle;whiteSpace=wrap;rounded=0;" parent="1" vertex="1">
          <mxGeometry x="780" y="650" width="40" height="30" as="geometry" />
        </mxCell>
        <mxCell id="bP5qZYam4a8HKO0-40Mf-40" value="2" style="text;html=1;align=center;verticalAlign=middle;whiteSpace=wrap;rounded=0;" parent="1" vertex="1">
          <mxGeometry x="820" y="650" width="40" height="30" as="geometry" />
        </mxCell>
        <mxCell id="bP5qZYam4a8HKO0-40Mf-41" value="3" style="text;html=1;align=center;verticalAlign=middle;whiteSpace=wrap;rounded=0;" parent="1" vertex="1">
          <mxGeometry x="860" y="650" width="40" height="30" as="geometry" />
        </mxCell>
        <mxCell id="bP5qZYam4a8HKO0-40Mf-42" value="4" style="text;html=1;align=center;verticalAlign=middle;whiteSpace=wrap;rounded=0;" parent="1" vertex="1">
          <mxGeometry x="900" y="650" width="40" height="30" as="geometry" />
        </mxCell>
        <mxCell id="bP5qZYam4a8HKO0-40Mf-43" value="5" style="text;html=1;align=center;verticalAlign=middle;whiteSpace=wrap;rounded=0;" parent="1" vertex="1">
          <mxGeometry x="940" y="650" width="40" height="30" as="geometry" />
        </mxCell>
        <mxCell id="bP5qZYam4a8HKO0-40Mf-44" value="6" style="text;html=1;align=center;verticalAlign=middle;whiteSpace=wrap;rounded=0;" parent="1" vertex="1">
          <mxGeometry x="980" y="650" width="40" height="30" as="geometry" />
        </mxCell>
        <mxCell id="bP5qZYam4a8HKO0-40Mf-45" value="7" style="text;html=1;align=center;verticalAlign=middle;whiteSpace=wrap;rounded=0;" parent="1" vertex="1">
          <mxGeometry x="1020" y="650" width="40" height="30" as="geometry" />
        </mxCell>
        <mxCell id="bP5qZYam4a8HKO0-40Mf-46" value="8" style="text;html=1;align=center;verticalAlign=middle;whiteSpace=wrap;rounded=0;" parent="1" vertex="1">
          <mxGeometry x="1060" y="650" width="40" height="30" as="geometry" />
        </mxCell>
        <mxCell id="bP5qZYam4a8HKO0-40Mf-47" value="9" style="text;html=1;align=center;verticalAlign=middle;whiteSpace=wrap;rounded=0;" parent="1" vertex="1">
          <mxGeometry x="1100" y="650" width="40" height="30" as="geometry" />
        </mxCell>
        <mxCell id="bP5qZYam4a8HKO0-40Mf-48" value="10" style="text;html=1;align=center;verticalAlign=middle;whiteSpace=wrap;rounded=0;" parent="1" vertex="1">
          <mxGeometry x="1140" y="650" width="40" height="30" as="geometry" />
        </mxCell>
        <mxCell id="bP5qZYam4a8HKO0-40Mf-49" value="11" style="text;html=1;align=center;verticalAlign=middle;whiteSpace=wrap;rounded=0;" parent="1" vertex="1">
          <mxGeometry x="1180" y="650" width="40" height="30" as="geometry" />
        </mxCell>
        <mxCell id="bP5qZYam4a8HKO0-40Mf-50" value="" style="ellipse;whiteSpace=wrap;html=1;" parent="1" vertex="1">
          <mxGeometry x="900" y="500" width="40" height="20" as="geometry" />
        </mxCell>
        <mxCell id="bP5qZYam4a8HKO0-40Mf-51" value="" style="ellipse;whiteSpace=wrap;html=1;" parent="1" vertex="1">
          <mxGeometry x="900" y="480" width="40" height="20" as="geometry" />
        </mxCell>
        <mxCell id="bP5qZYam4a8HKO0-40Mf-52" value="" style="ellipse;whiteSpace=wrap;html=1;" parent="1" vertex="1">
          <mxGeometry x="900" y="460" width="40" height="20" as="geometry" />
        </mxCell>
        <mxCell id="bP5qZYam4a8HKO0-40Mf-53" value="" style="ellipse;whiteSpace=wrap;html=1;" parent="1" vertex="1">
          <mxGeometry x="900" y="440" width="40" height="20" as="geometry" />
        </mxCell>
        <mxCell id="qJHvWddQvVpyHVcaTfQw-1" value="" style="whiteSpace=wrap;html=1;aspect=fixed;" parent="1" vertex="1">
          <mxGeometry x="520" y="50" width="40" height="40" as="geometry" />
        </mxCell>
        <mxCell id="qJHvWddQvVpyHVcaTfQw-2" value="" style="whiteSpace=wrap;html=1;aspect=fixed;" parent="1" vertex="1">
          <mxGeometry x="560" y="50" width="40" height="40" as="geometry" />
        </mxCell>
        <mxCell id="qJHvWddQvVpyHVcaTfQw-3" value="" style="whiteSpace=wrap;html=1;aspect=fixed;" parent="1" vertex="1">
          <mxGeometry x="600" y="50" width="40" height="40" as="geometry" />
        </mxCell>
        <mxCell id="qJHvWddQvVpyHVcaTfQw-4" value="" style="whiteSpace=wrap;html=1;aspect=fixed;" parent="1" vertex="1">
          <mxGeometry x="520" y="90" width="40" height="40" as="geometry" />
        </mxCell>
        <mxCell id="qJHvWddQvVpyHVcaTfQw-5" value="" style="whiteSpace=wrap;html=1;aspect=fixed;" parent="1" vertex="1">
          <mxGeometry x="560" y="90" width="40" height="40" as="geometry" />
        </mxCell>
        <mxCell id="qJHvWddQvVpyHVcaTfQw-6" value="" style="whiteSpace=wrap;html=1;aspect=fixed;" parent="1" vertex="1">
          <mxGeometry x="600" y="90" width="40" height="40" as="geometry" />
        </mxCell>
        <mxCell id="qJHvWddQvVpyHVcaTfQw-7" value="" style="whiteSpace=wrap;html=1;aspect=fixed;" parent="1" vertex="1">
          <mxGeometry x="520" y="130" width="40" height="40" as="geometry" />
        </mxCell>
        <mxCell id="qJHvWddQvVpyHVcaTfQw-8" value="" style="whiteSpace=wrap;html=1;aspect=fixed;" parent="1" vertex="1">
          <mxGeometry x="560" y="130" width="40" height="40" as="geometry" />
        </mxCell>
        <mxCell id="qJHvWddQvVpyHVcaTfQw-9" value="" style="whiteSpace=wrap;html=1;aspect=fixed;" parent="1" vertex="1">
          <mxGeometry x="600" y="130" width="40" height="40" as="geometry" />
        </mxCell>
        <mxCell id="qJHvWddQvVpyHVcaTfQw-10" value="" style="ellipse;whiteSpace=wrap;html=1;aspect=fixed;" parent="1" vertex="1">
          <mxGeometry x="565" y="95" width="30" height="30" as="geometry" />
        </mxCell>
        <mxCell id="qJHvWddQvVpyHVcaTfQw-11" value="" style="ellipse;whiteSpace=wrap;html=1;aspect=fixed;" parent="1" vertex="1">
          <mxGeometry x="525" y="95" width="30" height="30" as="geometry" />
        </mxCell>
        <mxCell id="qJHvWddQvVpyHVcaTfQw-12" value="" style="ellipse;whiteSpace=wrap;html=1;aspect=fixed;" parent="1" vertex="1">
          <mxGeometry x="605" y="55" width="30" height="30" as="geometry" />
        </mxCell>
        <mxCell id="qJHvWddQvVpyHVcaTfQw-13" value="" style="group" parent="1" vertex="1" connectable="0">
          <mxGeometry x="605" y="95" width="30" height="30" as="geometry" />
        </mxCell>
        <mxCell id="qJHvWddQvVpyHVcaTfQw-14" value="" style="endArrow=none;html=1;rounded=0;entryX=1;entryY=0;entryDx=0;entryDy=0;exitX=0;exitY=1;exitDx=0;exitDy=0;" parent="qJHvWddQvVpyHVcaTfQw-13" edge="1">
          <mxGeometry width="50" height="50" relative="1" as="geometry">
            <mxPoint y="30" as="sourcePoint" />
            <mxPoint x="30" as="targetPoint" />
          </mxGeometry>
        </mxCell>
        <mxCell id="qJHvWddQvVpyHVcaTfQw-15" value="" style="endArrow=none;html=1;rounded=0;entryX=1;entryY=0;entryDx=0;entryDy=0;" parent="qJHvWddQvVpyHVcaTfQw-13" edge="1">
          <mxGeometry width="50" height="50" relative="1" as="geometry">
            <mxPoint as="sourcePoint" />
            <mxPoint x="30" y="30" as="targetPoint" />
          </mxGeometry>
        </mxCell>
        <mxCell id="qJHvWddQvVpyHVcaTfQw-16" value="" style="group" parent="1" vertex="1" connectable="0">
          <mxGeometry x="525" y="135" width="30" height="30" as="geometry" />
        </mxCell>
        <mxCell id="qJHvWddQvVpyHVcaTfQw-17" value="" style="endArrow=none;html=1;rounded=0;entryX=1;entryY=0;entryDx=0;entryDy=0;exitX=0;exitY=1;exitDx=0;exitDy=0;" parent="qJHvWddQvVpyHVcaTfQw-16" edge="1">
          <mxGeometry width="50" height="50" relative="1" as="geometry">
            <mxPoint y="30" as="sourcePoint" />
            <mxPoint x="30" as="targetPoint" />
          </mxGeometry>
        </mxCell>
        <mxCell id="qJHvWddQvVpyHVcaTfQw-18" value="" style="endArrow=none;html=1;rounded=0;entryX=1;entryY=0;entryDx=0;entryDy=0;" parent="qJHvWddQvVpyHVcaTfQw-16" edge="1">
          <mxGeometry width="50" height="50" relative="1" as="geometry">
            <mxPoint as="sourcePoint" />
            <mxPoint x="30" y="30" as="targetPoint" />
          </mxGeometry>
        </mxCell>
        <mxCell id="qJHvWddQvVpyHVcaTfQw-19" value="" style="group" parent="1" vertex="1" connectable="0">
          <mxGeometry x="565" y="135" width="30" height="30" as="geometry" />
        </mxCell>
        <mxCell id="qJHvWddQvVpyHVcaTfQw-20" value="" style="endArrow=none;html=1;rounded=0;entryX=1;entryY=0;entryDx=0;entryDy=0;exitX=0;exitY=1;exitDx=0;exitDy=0;" parent="qJHvWddQvVpyHVcaTfQw-19" edge="1">
          <mxGeometry width="50" height="50" relative="1" as="geometry">
            <mxPoint y="30" as="sourcePoint" />
            <mxPoint x="30" as="targetPoint" />
          </mxGeometry>
        </mxCell>
        <mxCell id="qJHvWddQvVpyHVcaTfQw-21" value="" style="endArrow=none;html=1;rounded=0;entryX=1;entryY=0;entryDx=0;entryDy=0;" parent="qJHvWddQvVpyHVcaTfQw-19" edge="1">
          <mxGeometry width="50" height="50" relative="1" as="geometry">
            <mxPoint as="sourcePoint" />
            <mxPoint x="30" y="30" as="targetPoint" />
          </mxGeometry>
        </mxCell>
        <mxCell id="qJHvWddQvVpyHVcaTfQw-43" value="" style="shape=flexArrow;endArrow=classic;html=1;rounded=0;" parent="1" edge="1">
          <mxGeometry width="50" height="50" relative="1" as="geometry">
            <mxPoint x="460" y="109" as="sourcePoint" />
            <mxPoint x="510" y="109" as="targetPoint" />
          </mxGeometry>
        </mxCell>
        <mxCell id="qJHvWddQvVpyHVcaTfQw-44" value="" style="whiteSpace=wrap;html=1;aspect=fixed;" parent="1" vertex="1">
          <mxGeometry x="330" y="50" width="40" height="40" as="geometry" />
        </mxCell>
        <mxCell id="qJHvWddQvVpyHVcaTfQw-45" value="" style="whiteSpace=wrap;html=1;aspect=fixed;" parent="1" vertex="1">
          <mxGeometry x="370" y="50" width="40" height="40" as="geometry" />
        </mxCell>
        <mxCell id="qJHvWddQvVpyHVcaTfQw-46" value="" style="whiteSpace=wrap;html=1;aspect=fixed;" parent="1" vertex="1">
          <mxGeometry x="410" y="50" width="40" height="40" as="geometry" />
        </mxCell>
        <mxCell id="qJHvWddQvVpyHVcaTfQw-47" value="" style="whiteSpace=wrap;html=1;aspect=fixed;" parent="1" vertex="1">
          <mxGeometry x="330" y="90" width="40" height="40" as="geometry" />
        </mxCell>
        <mxCell id="qJHvWddQvVpyHVcaTfQw-48" value="" style="whiteSpace=wrap;html=1;aspect=fixed;" parent="1" vertex="1">
          <mxGeometry x="370" y="90" width="40" height="40" as="geometry" />
        </mxCell>
        <mxCell id="qJHvWddQvVpyHVcaTfQw-49" value="" style="whiteSpace=wrap;html=1;aspect=fixed;" parent="1" vertex="1">
          <mxGeometry x="410" y="90" width="40" height="40" as="geometry" />
        </mxCell>
        <mxCell id="qJHvWddQvVpyHVcaTfQw-50" value="" style="whiteSpace=wrap;html=1;aspect=fixed;" parent="1" vertex="1">
          <mxGeometry x="330" y="130" width="40" height="40" as="geometry" />
        </mxCell>
        <mxCell id="qJHvWddQvVpyHVcaTfQw-51" value="" style="whiteSpace=wrap;html=1;aspect=fixed;" parent="1" vertex="1">
          <mxGeometry x="370" y="130" width="40" height="40" as="geometry" />
        </mxCell>
        <mxCell id="qJHvWddQvVpyHVcaTfQw-52" value="" style="whiteSpace=wrap;html=1;aspect=fixed;" parent="1" vertex="1">
          <mxGeometry x="410" y="130" width="40" height="40" as="geometry" />
        </mxCell>
        <mxCell id="qJHvWddQvVpyHVcaTfQw-53" value="" style="ellipse;whiteSpace=wrap;html=1;aspect=fixed;" parent="1" vertex="1">
          <mxGeometry x="375" y="95" width="30" height="30" as="geometry" />
        </mxCell>
        <mxCell id="qJHvWddQvVpyHVcaTfQw-54" value="" style="ellipse;whiteSpace=wrap;html=1;aspect=fixed;" parent="1" vertex="1">
          <mxGeometry x="335" y="95" width="30" height="30" as="geometry" />
        </mxCell>
        <mxCell id="qJHvWddQvVpyHVcaTfQw-55" value="" style="ellipse;whiteSpace=wrap;html=1;aspect=fixed;" parent="1" vertex="1">
          <mxGeometry x="415" y="55" width="30" height="30" as="geometry" />
        </mxCell>
        <mxCell id="qJHvWddQvVpyHVcaTfQw-59" value="" style="group" parent="1" vertex="1" connectable="0">
          <mxGeometry x="335" y="135" width="30" height="30" as="geometry" />
        </mxCell>
        <mxCell id="qJHvWddQvVpyHVcaTfQw-60" value="" style="endArrow=none;html=1;rounded=0;entryX=1;entryY=0;entryDx=0;entryDy=0;exitX=0;exitY=1;exitDx=0;exitDy=0;" parent="qJHvWddQvVpyHVcaTfQw-59" edge="1">
          <mxGeometry width="50" height="50" relative="1" as="geometry">
            <mxPoint y="30" as="sourcePoint" />
            <mxPoint x="30" as="targetPoint" />
          </mxGeometry>
        </mxCell>
        <mxCell id="qJHvWddQvVpyHVcaTfQw-61" value="" style="endArrow=none;html=1;rounded=0;entryX=1;entryY=0;entryDx=0;entryDy=0;" parent="qJHvWddQvVpyHVcaTfQw-59" edge="1">
          <mxGeometry width="50" height="50" relative="1" as="geometry">
            <mxPoint as="sourcePoint" />
            <mxPoint x="30" y="30" as="targetPoint" />
          </mxGeometry>
        </mxCell>
        <mxCell id="qJHvWddQvVpyHVcaTfQw-62" value="" style="group" parent="1" vertex="1" connectable="0">
          <mxGeometry x="375" y="135" width="30" height="30" as="geometry" />
        </mxCell>
        <mxCell id="qJHvWddQvVpyHVcaTfQw-63" value="" style="endArrow=none;html=1;rounded=0;entryX=1;entryY=0;entryDx=0;entryDy=0;exitX=0;exitY=1;exitDx=0;exitDy=0;" parent="qJHvWddQvVpyHVcaTfQw-62" edge="1">
          <mxGeometry width="50" height="50" relative="1" as="geometry">
            <mxPoint y="30" as="sourcePoint" />
            <mxPoint x="30" as="targetPoint" />
          </mxGeometry>
        </mxCell>
        <mxCell id="qJHvWddQvVpyHVcaTfQw-64" value="" style="endArrow=none;html=1;rounded=0;entryX=1;entryY=0;entryDx=0;entryDy=0;" parent="qJHvWddQvVpyHVcaTfQw-62" edge="1">
          <mxGeometry width="50" height="50" relative="1" as="geometry">
            <mxPoint as="sourcePoint" />
            <mxPoint x="30" y="30" as="targetPoint" />
          </mxGeometry>
        </mxCell>
        <mxCell id="qJHvWddQvVpyHVcaTfQw-65" value="" style="whiteSpace=wrap;html=1;aspect=fixed;" parent="1" vertex="1">
          <mxGeometry x="190" y="50" width="40" height="40" as="geometry" />
        </mxCell>
        <mxCell id="qJHvWddQvVpyHVcaTfQw-66" value="" style="whiteSpace=wrap;html=1;aspect=fixed;" parent="1" vertex="1">
          <mxGeometry x="230" y="50" width="40" height="40" as="geometry" />
        </mxCell>
        <mxCell id="qJHvWddQvVpyHVcaTfQw-67" value="" style="whiteSpace=wrap;html=1;aspect=fixed;" parent="1" vertex="1">
          <mxGeometry x="270" y="50" width="40" height="40" as="geometry" />
        </mxCell>
        <mxCell id="qJHvWddQvVpyHVcaTfQw-68" value="" style="whiteSpace=wrap;html=1;aspect=fixed;" parent="1" vertex="1">
          <mxGeometry x="190" y="90" width="40" height="40" as="geometry" />
        </mxCell>
        <mxCell id="qJHvWddQvVpyHVcaTfQw-69" value="" style="whiteSpace=wrap;html=1;aspect=fixed;" parent="1" vertex="1">
          <mxGeometry x="230" y="90" width="40" height="40" as="geometry" />
        </mxCell>
        <mxCell id="qJHvWddQvVpyHVcaTfQw-70" value="" style="whiteSpace=wrap;html=1;aspect=fixed;" parent="1" vertex="1">
          <mxGeometry x="270" y="90" width="40" height="40" as="geometry" />
        </mxCell>
        <mxCell id="qJHvWddQvVpyHVcaTfQw-71" value="" style="whiteSpace=wrap;html=1;aspect=fixed;" parent="1" vertex="1">
          <mxGeometry x="190" y="130" width="40" height="40" as="geometry" />
        </mxCell>
        <mxCell id="qJHvWddQvVpyHVcaTfQw-72" value="" style="whiteSpace=wrap;html=1;aspect=fixed;" parent="1" vertex="1">
          <mxGeometry x="230" y="130" width="40" height="40" as="geometry" />
        </mxCell>
        <mxCell id="qJHvWddQvVpyHVcaTfQw-73" value="" style="whiteSpace=wrap;html=1;aspect=fixed;" parent="1" vertex="1">
          <mxGeometry x="270" y="130" width="40" height="40" as="geometry" />
        </mxCell>
        <mxCell id="qJHvWddQvVpyHVcaTfQw-74" value="" style="ellipse;whiteSpace=wrap;html=1;aspect=fixed;" parent="1" vertex="1">
          <mxGeometry x="235" y="95" width="30" height="30" as="geometry" />
        </mxCell>
        <mxCell id="qJHvWddQvVpyHVcaTfQw-75" value="" style="ellipse;whiteSpace=wrap;html=1;aspect=fixed;" parent="1" vertex="1">
          <mxGeometry x="195" y="95" width="30" height="30" as="geometry" />
        </mxCell>
        <mxCell id="qJHvWddQvVpyHVcaTfQw-76" value="" style="ellipse;whiteSpace=wrap;html=1;aspect=fixed;" parent="1" vertex="1">
          <mxGeometry x="275" y="55" width="30" height="30" as="geometry" />
        </mxCell>
        <mxCell id="qJHvWddQvVpyHVcaTfQw-77" value="" style="group" parent="1" vertex="1" connectable="0">
          <mxGeometry x="275" y="95" width="30" height="30" as="geometry" />
        </mxCell>
        <mxCell id="qJHvWddQvVpyHVcaTfQw-78" value="" style="endArrow=none;html=1;rounded=0;entryX=1;entryY=0;entryDx=0;entryDy=0;exitX=0;exitY=1;exitDx=0;exitDy=0;" parent="qJHvWddQvVpyHVcaTfQw-77" edge="1">
          <mxGeometry width="50" height="50" relative="1" as="geometry">
            <mxPoint y="30" as="sourcePoint" />
            <mxPoint x="30" as="targetPoint" />
          </mxGeometry>
        </mxCell>
        <mxCell id="qJHvWddQvVpyHVcaTfQw-79" value="" style="endArrow=none;html=1;rounded=0;entryX=1;entryY=0;entryDx=0;entryDy=0;" parent="qJHvWddQvVpyHVcaTfQw-77" edge="1">
          <mxGeometry width="50" height="50" relative="1" as="geometry">
            <mxPoint as="sourcePoint" />
            <mxPoint x="30" y="30" as="targetPoint" />
          </mxGeometry>
        </mxCell>
        <mxCell id="qJHvWddQvVpyHVcaTfQw-80" value="" style="group" parent="1" vertex="1" connectable="0">
          <mxGeometry x="195" y="135" width="30" height="30" as="geometry" />
        </mxCell>
        <mxCell id="qJHvWddQvVpyHVcaTfQw-81" value="" style="endArrow=none;html=1;rounded=0;entryX=1;entryY=0;entryDx=0;entryDy=0;exitX=0;exitY=1;exitDx=0;exitDy=0;" parent="qJHvWddQvVpyHVcaTfQw-80" edge="1">
          <mxGeometry width="50" height="50" relative="1" as="geometry">
            <mxPoint y="30" as="sourcePoint" />
            <mxPoint x="30" as="targetPoint" />
          </mxGeometry>
        </mxCell>
        <mxCell id="qJHvWddQvVpyHVcaTfQw-82" value="" style="endArrow=none;html=1;rounded=0;entryX=1;entryY=0;entryDx=0;entryDy=0;" parent="qJHvWddQvVpyHVcaTfQw-80" edge="1">
          <mxGeometry width="50" height="50" relative="1" as="geometry">
            <mxPoint as="sourcePoint" />
            <mxPoint x="30" y="30" as="targetPoint" />
          </mxGeometry>
        </mxCell>
        <mxCell id="qJHvWddQvVpyHVcaTfQw-107" value="" style="whiteSpace=wrap;html=1;aspect=fixed;" parent="1" vertex="1">
          <mxGeometry x="50" y="50" width="40" height="40" as="geometry" />
        </mxCell>
        <mxCell id="qJHvWddQvVpyHVcaTfQw-108" value="" style="whiteSpace=wrap;html=1;aspect=fixed;" parent="1" vertex="1">
          <mxGeometry x="90" y="50" width="40" height="40" as="geometry" />
        </mxCell>
        <mxCell id="qJHvWddQvVpyHVcaTfQw-109" value="" style="whiteSpace=wrap;html=1;aspect=fixed;" parent="1" vertex="1">
          <mxGeometry x="130" y="50" width="40" height="40" as="geometry" />
        </mxCell>
        <mxCell id="qJHvWddQvVpyHVcaTfQw-110" value="" style="whiteSpace=wrap;html=1;aspect=fixed;" parent="1" vertex="1">
          <mxGeometry x="50" y="90" width="40" height="40" as="geometry" />
        </mxCell>
        <mxCell id="qJHvWddQvVpyHVcaTfQw-111" value="" style="whiteSpace=wrap;html=1;aspect=fixed;" parent="1" vertex="1">
          <mxGeometry x="90" y="90" width="40" height="40" as="geometry" />
        </mxCell>
        <mxCell id="qJHvWddQvVpyHVcaTfQw-112" value="" style="whiteSpace=wrap;html=1;aspect=fixed;" parent="1" vertex="1">
          <mxGeometry x="130" y="90" width="40" height="40" as="geometry" />
        </mxCell>
        <mxCell id="qJHvWddQvVpyHVcaTfQw-113" value="" style="whiteSpace=wrap;html=1;aspect=fixed;" parent="1" vertex="1">
          <mxGeometry x="50" y="130" width="40" height="40" as="geometry" />
        </mxCell>
        <mxCell id="qJHvWddQvVpyHVcaTfQw-114" value="" style="whiteSpace=wrap;html=1;aspect=fixed;" parent="1" vertex="1">
          <mxGeometry x="90" y="130" width="40" height="40" as="geometry" />
        </mxCell>
        <mxCell id="qJHvWddQvVpyHVcaTfQw-115" value="" style="whiteSpace=wrap;html=1;aspect=fixed;" parent="1" vertex="1">
          <mxGeometry x="130" y="130" width="40" height="40" as="geometry" />
        </mxCell>
        <mxCell id="qJHvWddQvVpyHVcaTfQw-116" value="" style="ellipse;whiteSpace=wrap;html=1;aspect=fixed;" parent="1" vertex="1">
          <mxGeometry x="95" y="95" width="30" height="30" as="geometry" />
        </mxCell>
        <mxCell id="qJHvWddQvVpyHVcaTfQw-117" value="" style="ellipse;whiteSpace=wrap;html=1;aspect=fixed;" parent="1" vertex="1">
          <mxGeometry x="55" y="95" width="30" height="30" as="geometry" />
        </mxCell>
        <mxCell id="qJHvWddQvVpyHVcaTfQw-118" value="" style="ellipse;whiteSpace=wrap;html=1;aspect=fixed;" parent="1" vertex="1">
          <mxGeometry x="135" y="55" width="30" height="30" as="geometry" />
        </mxCell>
        <mxCell id="qJHvWddQvVpyHVcaTfQw-119" value="" style="group" parent="1" vertex="1" connectable="0">
          <mxGeometry x="135" y="95" width="30" height="30" as="geometry" />
        </mxCell>
        <mxCell id="qJHvWddQvVpyHVcaTfQw-120" value="" style="endArrow=none;html=1;rounded=0;entryX=1;entryY=0;entryDx=0;entryDy=0;exitX=0;exitY=1;exitDx=0;exitDy=0;" parent="qJHvWddQvVpyHVcaTfQw-119" edge="1">
          <mxGeometry width="50" height="50" relative="1" as="geometry">
            <mxPoint y="30" as="sourcePoint" />
            <mxPoint x="30" as="targetPoint" />
          </mxGeometry>
        </mxCell>
        <mxCell id="qJHvWddQvVpyHVcaTfQw-121" value="" style="endArrow=none;html=1;rounded=0;entryX=1;entryY=0;entryDx=0;entryDy=0;" parent="qJHvWddQvVpyHVcaTfQw-119" edge="1">
          <mxGeometry width="50" height="50" relative="1" as="geometry">
            <mxPoint as="sourcePoint" />
            <mxPoint x="30" y="30" as="targetPoint" />
          </mxGeometry>
        </mxCell>
        <mxCell id="qJHvWddQvVpyHVcaTfQw-125" value="" style="group" parent="1" vertex="1" connectable="0">
          <mxGeometry x="95" y="135" width="30" height="30" as="geometry" />
        </mxCell>
        <mxCell id="qJHvWddQvVpyHVcaTfQw-126" value="" style="endArrow=none;html=1;rounded=0;entryX=1;entryY=0;entryDx=0;entryDy=0;exitX=0;exitY=1;exitDx=0;exitDy=0;" parent="qJHvWddQvVpyHVcaTfQw-125" edge="1">
          <mxGeometry width="50" height="50" relative="1" as="geometry">
            <mxPoint y="30" as="sourcePoint" />
            <mxPoint x="30" as="targetPoint" />
          </mxGeometry>
        </mxCell>
        <mxCell id="qJHvWddQvVpyHVcaTfQw-127" value="" style="endArrow=none;html=1;rounded=0;entryX=1;entryY=0;entryDx=0;entryDy=0;" parent="qJHvWddQvVpyHVcaTfQw-125" edge="1">
          <mxGeometry width="50" height="50" relative="1" as="geometry">
            <mxPoint as="sourcePoint" />
            <mxPoint x="30" y="30" as="targetPoint" />
          </mxGeometry>
        </mxCell>
        <mxCell id="RNx5oMXkwQKdDHzfXm1A-1" value="30" style="ellipse;whiteSpace=wrap;html=1;aspect=fixed;fillColor=#dae8fc;strokeColor=#6c8ebf;" vertex="1" parent="1">
          <mxGeometry x="40" y="250" width="40" height="40" as="geometry" />
        </mxCell>
        <mxCell id="RNx5oMXkwQKdDHzfXm1A-2" value="말한 수(n)" style="text;html=1;align=center;verticalAlign=middle;whiteSpace=wrap;rounded=0;" vertex="1" parent="1">
          <mxGeometry x="30" y="220" width="60" height="20" as="geometry" />
        </mxCell>
        <mxCell id="RNx5oMXkwQKdDHzfXm1A-4" value="이어지는 G(n)" style="text;html=1;align=center;verticalAlign=middle;whiteSpace=wrap;rounded=0;" vertex="1" parent="1">
          <mxGeometry x="90" y="220" width="80" height="20" as="geometry" />
        </mxCell>
        <mxCell id="RNx5oMXkwQKdDHzfXm1A-6" value="29" style="ellipse;whiteSpace=wrap;html=1;aspect=fixed;" vertex="1" parent="1">
          <mxGeometry x="40" y="300" width="40" height="40" as="geometry" />
        </mxCell>
        <mxCell id="RNx5oMXkwQKdDHzfXm1A-7" value="{ }" style="text;html=1;align=center;verticalAlign=middle;whiteSpace=wrap;rounded=0;" vertex="1" parent="1">
          <mxGeometry x="100" y="255" width="60" height="30" as="geometry" />
        </mxCell>
        <mxCell id="RNx5oMXkwQKdDHzfXm1A-8" value="{0}" style="text;html=1;align=center;verticalAlign=middle;whiteSpace=wrap;rounded=0;" vertex="1" parent="1">
          <mxGeometry x="100" y="305" width="60" height="30" as="geometry" />
        </mxCell>
        <mxCell id="RNx5oMXkwQKdDHzfXm1A-11" value="mex" style="text;html=1;align=center;verticalAlign=middle;whiteSpace=wrap;rounded=0;" vertex="1" parent="1">
          <mxGeometry x="170" y="220" width="40" height="20" as="geometry" />
        </mxCell>
        <mxCell id="RNx5oMXkwQKdDHzfXm1A-12" value="0" style="text;html=1;align=center;verticalAlign=middle;whiteSpace=wrap;rounded=0;" vertex="1" parent="1">
          <mxGeometry x="160" y="255" width="60" height="30" as="geometry" />
        </mxCell>
        <mxCell id="RNx5oMXkwQKdDHzfXm1A-13" value="1" style="text;html=1;align=center;verticalAlign=middle;whiteSpace=wrap;rounded=0;" vertex="1" parent="1">
          <mxGeometry x="160" y="305" width="60" height="30" as="geometry" />
        </mxCell>
        <mxCell id="RNx5oMXkwQKdDHzfXm1A-18" value="28" style="ellipse;whiteSpace=wrap;html=1;aspect=fixed;" vertex="1" parent="1">
          <mxGeometry x="40" y="350" width="40" height="40" as="geometry" />
        </mxCell>
        <mxCell id="RNx5oMXkwQKdDHzfXm1A-19" value="{0, 1}" style="text;html=1;align=center;verticalAlign=middle;whiteSpace=wrap;rounded=0;" vertex="1" parent="1">
          <mxGeometry x="100" y="355" width="60" height="30" as="geometry" />
        </mxCell>
        <mxCell id="RNx5oMXkwQKdDHzfXm1A-20" value="2" style="text;html=1;align=center;verticalAlign=middle;whiteSpace=wrap;rounded=0;" vertex="1" parent="1">
          <mxGeometry x="160" y="355" width="60" height="30" as="geometry" />
        </mxCell>
        <mxCell id="RNx5oMXkwQKdDHzfXm1A-21" value="27" style="ellipse;whiteSpace=wrap;html=1;aspect=fixed;" vertex="1" parent="1">
          <mxGeometry x="40" y="400" width="40" height="40" as="geometry" />
        </mxCell>
        <mxCell id="RNx5oMXkwQKdDHzfXm1A-22" value="{0, 1, 2}" style="text;html=1;align=center;verticalAlign=middle;whiteSpace=wrap;rounded=0;" vertex="1" parent="1">
          <mxGeometry x="100" y="405" width="60" height="30" as="geometry" />
        </mxCell>
        <mxCell id="RNx5oMXkwQKdDHzfXm1A-23" value="3" style="text;html=1;align=center;verticalAlign=middle;whiteSpace=wrap;rounded=0;" vertex="1" parent="1">
          <mxGeometry x="160" y="405" width="60" height="30" as="geometry" />
        </mxCell>
        <mxCell id="RNx5oMXkwQKdDHzfXm1A-24" value="26" style="ellipse;whiteSpace=wrap;html=1;aspect=fixed;" vertex="1" parent="1">
          <mxGeometry x="40" y="450" width="40" height="40" as="geometry" />
        </mxCell>
        <mxCell id="RNx5oMXkwQKdDHzfXm1A-25" value="{1, 2, 3}" style="text;html=1;align=center;verticalAlign=middle;whiteSpace=wrap;rounded=0;" vertex="1" parent="1">
          <mxGeometry x="100" y="455" width="60" height="30" as="geometry" />
        </mxCell>
        <mxCell id="RNx5oMXkwQKdDHzfXm1A-26" value="0" style="text;html=1;align=center;verticalAlign=middle;whiteSpace=wrap;rounded=0;" vertex="1" parent="1">
          <mxGeometry x="160" y="455" width="60" height="30" as="geometry" />
        </mxCell>
        <mxCell id="RNx5oMXkwQKdDHzfXm1A-27" value="25" style="ellipse;whiteSpace=wrap;html=1;aspect=fixed;" vertex="1" parent="1">
          <mxGeometry x="40" y="500" width="40" height="40" as="geometry" />
        </mxCell>
        <mxCell id="RNx5oMXkwQKdDHzfXm1A-28" value="{0, 2, 3}" style="text;html=1;align=center;verticalAlign=middle;whiteSpace=wrap;rounded=0;" vertex="1" parent="1">
          <mxGeometry x="100" y="505" width="60" height="30" as="geometry" />
        </mxCell>
        <mxCell id="RNx5oMXkwQKdDHzfXm1A-29" value="1" style="text;html=1;align=center;verticalAlign=middle;whiteSpace=wrap;rounded=0;" vertex="1" parent="1">
          <mxGeometry x="160" y="505" width="60" height="30" as="geometry" />
        </mxCell>
        <mxCell id="RNx5oMXkwQKdDHzfXm1A-33" value="..." style="text;html=1;align=center;verticalAlign=middle;whiteSpace=wrap;rounded=0;" vertex="1" parent="1">
          <mxGeometry x="100" y="550" width="60" height="30" as="geometry" />
        </mxCell>
      </root>
    </mxGraphModel>
  </diagram>
</mxfile>
